<svg width="182" height="182" viewBox="0 0 182 182" fill="none" xmlns="http://www.w3.org/2000/svg">
<circle cx="91" cy="91" r="80.5" stroke="#919191" stroke-width="21"/>
<path d="M89.5992 28.8073C90.2005 26.9701 92.7995 26.9701 93.4008 28.8073L106.428 68.609C106.697 69.4309 107.464 69.9868 108.329 69.9868L150.455 69.9868C152.396 69.9868 153.2 72.4735 151.625 73.609L117.57 98.1713C116.864 98.6805 116.568 99.5881 116.839 100.416L129.853 140.176C130.455 142.016 128.352 143.553 126.782 142.421L92.6699 117.817C91.9713 117.314 91.0287 117.314 90.3301 117.817L56.2179 142.421C54.6476 143.553 52.5449 142.016 53.1472 140.176L66.1612 100.416C66.432 99.5881 66.1365 98.6805 65.4304 98.1713L31.3747 73.609C29.8004 72.4735 30.6036 69.9868 32.5446 69.9868L74.671 69.9868C75.5359 69.9868 76.3027 69.4309 76.5718 68.609L89.5992 28.8073Z" fill="#909090"/>
</svg>
